<?xml version="1.0" encoding="utf-8"?>
<!-- Generator: Adobe Illustrator 18.0.0, SVG Export Plug-In . SVG Version: 6.00 Build 0)  -->
<!DOCTYPE svg PUBLIC "-//W3C//DTD SVG 1.1//EN" "http://www.w3.org/Graphics/SVG/1.1/DTD/svg11.dtd">
<svg version="1.1" id="Layer_1" xmlns="http://www.w3.org/2000/svg" xmlns:xlink="http://www.w3.org/1999/xlink" x="0px" y="0px"
	 viewBox="0 0 341.4 231.4" enable-background="new 0 0 341.4 231.4" xml:space="preserve">
<linearGradient id="SVGID_1_" gradientUnits="userSpaceOnUse" x1="2710.9756" y1="547.1974" x2="2804.8979" y2="547.1974" gradientTransform="matrix(-1 0 0 -1 2873.6257 628.5309)">
	<stop  offset="0" style="stop-color:#EFDF0E"/>
	<stop  offset="0.135" style="stop-color:#EADE14"/>
	<stop  offset="0.2928" style="stop-color:#DDD920"/>
	<stop  offset="0.462" style="stop-color:#C7D22D"/>
	<stop  offset="0.6392" style="stop-color:#A8C838"/>
	<stop  offset="0.8207" style="stop-color:#7EBC42"/>
	<stop  offset="1" style="stop-color:#3CB14A"/>
</linearGradient>
<path opacity="0.6" fill="url(#SVGID_1_)" d="M115.7,162.7c25.9,0,47-21.1,47-47c0-2.2-0.2-4.3-0.4-6.4
	C158.9,80,134.8,28.5,120.5,2.8c-2.1-3.8-7.5-3.8-9.6,0C96.5,28.5,72.5,80,69.2,109.2c-0.3,2.1-0.4,4.2-0.4,6.4
	C68.7,141.6,89.7,162.6,115.7,162.7z M115.7,84.9c17,0,30.8,13.8,30.8,30.8s-13.8,30.8-30.8,30.8c-17,0-30.8-13.8-30.8-30.8
	S98.7,84.9,115.7,84.9z"/>
<linearGradient id="SVGID_2_" gradientUnits="userSpaceOnUse" x1="2342.3408" y1="1152.3267" x2="2436.2634" y2="1152.3267" gradientTransform="matrix(-0.866 0.5 -0.5 -0.866 2743.8472 -110.7382)">
	<stop  offset="0" style="stop-color:#96C93D"/>
	<stop  offset="0.1126" style="stop-color:#8BBD3D"/>
	<stop  offset="0.2947" style="stop-color:#72A63D"/>
	<stop  offset="0.5235" style="stop-color:#4A863A"/>
	<stop  offset="0.7875" style="stop-color:#0D5E30"/>
	<stop  offset="1" style="stop-color:#004023"/>
</linearGradient>
<path opacity="0.6" fill="url(#SVGID_2_)" d="M139.2,156.4c22.5-13,30.1-41.7,17.2-64.2c-1.1-1.9-2.3-3.7-3.6-5.3
	c-17.5-23.7-64.1-56.2-89.3-71.3c-3.7-2.2-8.4,0.5-8.3,4.8c0.4,29.4,5.3,86,17.1,113c0.8,2,1.7,3.9,2.8,5.8
	C88,161.6,116.7,169.4,139.2,156.4z M100.3,89.1c14.7-8.5,33.5-3.5,42,11.3c8.5,14.7,3.5,33.5-11.3,42c-14.7,8.5-33.5,3.5-42-11.3
	S85.6,97.6,100.3,89.1z"/>
<linearGradient id="SVGID_3_" gradientUnits="userSpaceOnUse" x1="1786.6422" y1="1533.4833" x2="1880.5646" y2="1533.4833" gradientTransform="matrix(-0.5 0.866 -0.866 -0.5 2330.7297 -722.6627)">
	<stop  offset="0" style="stop-color:#00ABC7"/>
	<stop  offset="0.1385" style="stop-color:#00A7C3"/>
	<stop  offset="0.2823" style="stop-color:#009EBA"/>
	<stop  offset="0.4286" style="stop-color:#0091AC"/>
	<stop  offset="0.5765" style="stop-color:#007E99"/>
	<stop  offset="0.7258" style="stop-color:#006780"/>
	<stop  offset="0.874" style="stop-color:#004C63"/>
	<stop  offset="1" style="stop-color:#003146"/>
</linearGradient>
<path opacity="0.6" fill="url(#SVGID_3_)" d="M156.3,139.2c12.9-22.5,5.2-51.2-17.2-64.2c-1.9-1.1-3.8-2-5.8-2.8
	c-27-11.7-83.6-16.7-113-17.1c-4.3-0.1-7,4.6-4.8,8.3c15.1,25.3,47.6,71.8,71.3,89.3c1.7,1.3,3.4,2.5,5.3,3.6
	C114.6,169.3,143.3,161.7,156.3,139.2z M89,100.4c8.5-14.7,27.3-19.7,42-11.3s19.7,27.3,11.3,42c-8.5,14.7-27.3,19.7-42,11.3
	S80.5,115.1,89,100.4z"/>
<linearGradient id="SVGID_4_" gradientUnits="userSpaceOnUse" x1="1131.7716" y1="1595.2692" x2="1225.6941" y2="1595.2692" gradientTransform="matrix(4.489700e-011 1 -1 4.489700e-011 1676.6027 -1062.9939)">
	<stop  offset="0" style="stop-color:#0F4B91"/>
	<stop  offset="0.126" style="stop-color:#075195"/>
	<stop  offset="0.3496" style="stop-color:#0060A1"/>
	<stop  offset="0.6446" style="stop-color:#0079B6"/>
	<stop  offset="0.9965" style="stop-color:#00A0DD"/>
	<stop  offset="1" style="stop-color:#00A0DD"/>
</linearGradient>
<path opacity="0.6" fill="url(#SVGID_4_)" d="M162.7,115.7c0-25.9-21.1-47-47-47c-2.2,0-4.3,0.2-6.4,0.4
	C80,72.6,28.5,96.6,2.8,110.9c-3.8,2.1-3.8,7.5,0,9.6c25.7,14.3,77.2,38.4,106.4,41.7c2.1,0.3,4.2,0.4,6.4,0.4
	C141.6,162.7,162.6,141.7,162.7,115.7z M84.9,115.7c0-17,13.8-30.8,30.8-30.8s30.8,13.8,30.8,30.8c0,17-13.8,30.8-30.8,30.8
	S84.9,132.7,84.9,115.7z"/>
<linearGradient id="SVGID_5_" gradientUnits="userSpaceOnUse" x1="535.1327" y1="1352.2922" x2="629.0551" y2="1352.2922" gradientTransform="matrix(0.5 0.866 -0.866 0.5 965.9687 -1047.3464)">
	<stop  offset="0" style="stop-color:#2E3C97"/>
	<stop  offset="0.1668" style="stop-color:#323B96"/>
	<stop  offset="0.3026" style="stop-color:#3D3993"/>
	<stop  offset="0.4274" style="stop-color:#4C378F"/>
	<stop  offset="0.5458" style="stop-color:#5E348B"/>
	<stop  offset="0.6595" style="stop-color:#722F85"/>
	<stop  offset="0.7698" style="stop-color:#86287E"/>
	<stop  offset="0.8774" style="stop-color:#9C1C75"/>
	<stop  offset="0.9801" style="stop-color:#B2056C"/>
	<stop  offset="1" style="stop-color:#B7006A"/>
</linearGradient>
<path opacity="0.6" fill="url(#SVGID_5_)" d="M156.3,92.2c-13-22.5-41.7-30.1-64.2-17.2c-1.9,1.1-3.7,2.3-5.3,3.6
	C63.1,96.2,30.6,142.7,15.5,168c-2.2,3.7,0.5,8.4,4.8,8.3c29.4-0.4,86-5.3,113-17.1c2-0.8,3.9-1.7,5.8-2.8
	C161.6,143.4,169.3,114.7,156.3,92.2z M89,131.1c-8.5-14.7-3.5-33.5,11.3-42s33.5-3.5,42,11.3c8.5,14.7,3.5,33.5-11.3,42
	S97.5,145.8,89,131.1z"/>
<linearGradient id="SVGID_6_" gradientUnits="userSpaceOnUse" x1="141.0466" y1="825.4523" x2="234.9691" y2="825.4523" gradientTransform="matrix(0.866 0.5 -0.5 0.866 348.4153 -663.361)">
	<stop  offset="0" style="stop-color:#702877"/>
	<stop  offset="0.1087" style="stop-color:#742975"/>
	<stop  offset="0.2588" style="stop-color:#7E296F"/>
	<stop  offset="0.4331" style="stop-color:#8F2C65"/>
	<stop  offset="0.6256" style="stop-color:#A82E57"/>
	<stop  offset="0.8304" style="stop-color:#C83242"/>
	<stop  offset="1" style="stop-color:#E83628"/>
</linearGradient>
<path opacity="0.6" fill="url(#SVGID_6_)" d="M139.2,75.1C116.7,62.1,88,69.8,75,92.3c-1.1,1.9-2,3.8-2.8,5.8
	c-11.7,27-16.7,83.6-17.1,113c-0.1,4.3,4.6,7,8.3,4.8c25.3-15.1,71.8-47.6,89.3-71.3c1.3-1.7,2.5-3.4,3.6-5.3
	C169.3,116.8,161.6,88.1,139.2,75.1z M100.3,142.4c-14.7-8.5-19.7-27.3-11.3-42s27.3-19.7,42-11.3c14.7,8.5,19.7,27.3,11.3,42
	C133.8,145.8,115,150.9,100.3,142.4z"/>
<linearGradient id="SVGID_7_" gradientUnits="userSpaceOnUse" x1="68.7279" y1="150.0939" x2="162.6504" y2="150.0939">
	<stop  offset="0" style="stop-color:#C6203E"/>
	<stop  offset="1" style="stop-color:#F47920"/>
</linearGradient>
<path opacity="0.6" fill="url(#SVGID_7_)" d="M115.7,68.8c-25.9,0-47,21.1-47,47c0,2.2,0.2,4.3,0.4,6.4
	c3.3,29.2,27.4,80.7,41.7,106.4c2.1,3.8,7.5,3.8,9.6,0c14.3-25.7,38.4-77.2,41.7-106.4c0.3-2.1,0.4-4.2,0.4-6.4
	C162.7,89.8,141.6,68.8,115.7,68.8z M115.7,146.5c-17,0-30.8-13.8-30.8-30.8S98.7,85,115.7,85c17,0,30.8,13.8,30.8,30.8
	S132.7,146.5,115.7,146.5z"/>
<g>
	<linearGradient id="SVGID_8_" gradientUnits="userSpaceOnUse" x1="68.0277" y1="115.8899" x2="163.473" y2="115.8899">
		<stop  offset="0" style="stop-color:#B42257"/>
		<stop  offset="8.667510e-002" style="stop-color:#B83258"/>
		<stop  offset="0.1811" style="stop-color:#BD455A"/>
		<stop  offset="0.8373" style="stop-color:#E8623F"/>
	</linearGradient>
	<path fill="url(#SVGID_8_)" d="M115.8,163.6c-26.3,0-47.7-21.4-47.7-47.7s21.4-47.7,47.7-47.7s47.7,21.4,47.7,47.7
		S142.1,163.6,115.8,163.6z M115.8,86.2C99.4,86.2,86,99.5,86,115.9s13.3,29.7,29.7,29.7s29.7-13.3,29.7-29.7S132.1,86.2,115.8,86.2
		z"/>
</g>
<g>
	<linearGradient id="SVGID_9_" gradientUnits="userSpaceOnUse" x1="190.095" y1="115.6669" x2="328.1276" y2="115.6669">
		<stop  offset="0" style="stop-color:#E8623F"/>
		<stop  offset="6.613448e-002" style="stop-color:#E96547"/>
		<stop  offset="0.2358" style="stop-color:#EB6B58"/>
		<stop  offset="0.735" style="stop-color:#F37766"/>
		<stop  offset="1" style="stop-color:#F58A76"/>
	</linearGradient>
	<path fill="url(#SVGID_9_)" d="M212.7,107.6c-17.3-4.1-20.4-7-20.4-13v-0.3c0-5.7,5.4-9.5,13.4-9.5c7,0,13.9,2.4,21.1,7.3
		c1.8,1.2,4.3,0.7,5.5-1l4.9-7c1.3-1.8,0.9-4.3-0.9-5.6c-8.9-6.4-18.9-9.5-30.4-9.5c-18.5,0-31.4,11-31.4,26.8V96
		c0,16.9,11.1,22.9,30.4,27.5c16.4,3.8,19.3,7.1,19.3,12.6v0.3c0,6.2-5.8,10.1-14.7,10.1c-9.1,0-17-3-25.2-9.5
		c-1.6-1.3-4.2-1-5.6,0.6l-5.5,6.6c-0.7,0.8-1,1.9-0.9,3c0.1,1.1,0.6,2.1,1.5,2.8c10.1,8.1,22.3,12.4,35.3,12.4
		c19.9,0,32.8-10.8,32.8-27.5v-0.3C241.9,120.4,233.4,112.6,212.7,107.6z"/>
	<linearGradient id="SVGID_10_" gradientUnits="userSpaceOnUse" x1="190.095" y1="115.9641" x2="328.1276" y2="115.9641">
		<stop  offset="0" style="stop-color:#E8623F"/>
		<stop  offset="6.613448e-002" style="stop-color:#E96547"/>
		<stop  offset="0.2358" style="stop-color:#EB6B58"/>
		<stop  offset="0.735" style="stop-color:#F37766"/>
		<stop  offset="1" style="stop-color:#F58A76"/>
	</linearGradient>
	<path fill="url(#SVGID_10_)" d="M293.2,70.5h-29.8c-2.4,0-4.4,2-4.4,4.4V157c0,2.4,2,4.4,4.4,4.4h29.8c27.9,0,48.2-19.1,48.2-45.4
		v-0.3C341.4,89.5,321.1,70.5,293.2,70.5z M323,116v0.3c0,17.3-12,28.9-29.8,28.9H279c-1.3,0-2.3-1.1-2.3-2.4V89.1
		c0-1.3,1.1-2.3,2.3-2.3h14.1C310.7,86.8,323,98.8,323,116z"/>
</g>
</svg>
